# xmcd CD database file generated by Grip 3.2.0
# 
# Track frame offsets:
#       182
#       20502
#       35825
#       49632
#       67810
#       83792
#       107490
#       133565
#       157315
#       184107
#       206352
#       225680
# 
# Disc length: 3488 seconds
# 
# Revision: 3
# Processed by: cddbd v1.5.2PL0 Copyright (c) Steve Scherf et al.
# Submitted via: Grip 3.2.0
# 
DISCID=9b0d9e0c
DTITLE=Otis Rush - Ain't Enough Comin' In
DYEAR=1994
DGENRE=Blues
TTITLE0=Don't Burn Down The Bridge
TTITLE1=That Will Never Do
TTITLE2=Somebody Have Mercy
TTITLE3=A Fool For You
TTITLE4=Homework
TTITLE5=My Jug And I
TTITLE6=She's A Good'un
TTITLE7=It's My Own Fault
TTITLE8=Ain't Enough Comin' In
TTITLE9=If I Had Any Sense, I'd Go Back Home
TTITLE10=Ain't That Good News
TTITLE11=As The Years Go Passing By
EXTD=YEAR: 1994
EXTT0=
EXTT1=
EXTT2=
EXTT3=
EXTT4=
EXTT5=
EXTT6=
EXTT7=
EXTT8=
EXTT9=
EXTT10=
EXTT11=
PLAYORDER=
